<?xml version="1.0" encoding="UTF-8"?>
<svg id="Layer_2" data-name="Layer 2" xmlns="http://www.w3.org/2000/svg" viewBox="0 0 232.2 76.07">
  <defs>
    <style>
      .cls-1 {
        fill: #fff;
      }
    </style>
  </defs>
  <g id="Layer_1-2" data-name="Layer 1">
    <g>
      <path class="cls-1" d="M76.3,38.05c0,21-17.08,38.02-38.15,38.02S0,59.05,0,38.05,17.09,0,38.15,0s38.15,17.02,38.15,38.05M42.53,13.22c-1.43-.13-2.89-.19-4.38-.19s-2.93,.06-4.36,.19v20.29h8.74V13.22Zm20.2,11.83c-3.08-1.01-6.34-1.84-9.75-2.45v17.04c0,12.27-5.22,18.71-14.83,18.71s-14.81-6.45-14.81-18.71V22.59c-3.41,.61-6.66,1.45-9.75,2.45v14.68c0,13.48,11,24.5,24.56,24.5s24.58-11.01,24.58-24.5v-14.68Z"/>
      <g>
        <path class="cls-1" d="M118.68,44.02c-3.44,0-6.04,1.4-7.33,3.52-1.31-2.11-4.15-3.52-7.12-3.52-5.83,0-8.81,3.69-8.81,8.26v10.97h5.44v-10.2c0-2.17,1.15-4.11,3.79-4.11s4,1.84,4,4.04v10.28h5.46v-10.28c0-2.19,1.29-4.04,3.9-4.04s3.87,1.94,3.87,4.11v10.2h5.44v-10.97c0-4.57-2.81-8.26-8.66-8.26"/>
        <path class="cls-1" d="M151.62,56.62h0v-12.24h-5.39l.04,2.98c-1.17-1.75-3.23-3.34-6.89-3.34-6.29,0-9.52,4.88-9.52,9.78-.12,4.96,3.54,9.9,9.25,9.9,3.02,0,5.79-1.34,7.12-3.71,.54,1.56,1.89,3.27,4.69,3.27h3.12v-4.57h-.87c-1.1,0-1.56-.4-1.56-2.06m-11.1,2.34c-3.1,0-5.4-2.13-5.4-5.13s2.31-5.05,5.4-5.05,5.5,2.09,5.5,5.05-2.31,5.13-5.5,5.13"/>
        <path class="cls-1" d="M157.51,50.82v12.43h5.44v-8.34c0-3.23,2.35-5.3,5.33-5.3h3.56v-5.61h-2.67c-3.29,0-5.69,2.8-6.21,4.44v-4.05h-5.44v6.44Z"/>
        <polygon class="cls-1" points="175.06 63.25 180.5 63.25 180.5 54.01 188.96 63.25 195.39 63.25 186.62 53.55 194.71 44.38 188.31 44.38 180.5 53.22 180.5 38.54 175.06 38.54 175.06 63.25"/>
        <path class="cls-1" d="M201.76,55.3c0,2.08,1.08,4.17,4.56,4.17,3.19,0,3.65-1.92,3.65-1.92h5.98s-.56,6.15-9.64,6.15c-6.33,0-10.29-3.54-10.29-9.86s3.96-9.82,10.23-9.82,10.16,3.5,10.16,9.82c0,.69-.12,1.46-.12,1.46h-14.54Zm.08-3.32h8.77c0-1.54-.89-3.73-4.35-3.73s-4.42,2.19-4.42,3.73"/>
        <path class="cls-1" d="M228.84,58.52c-1.86,0-2.54-.83-2.54-3.46v-6.65h5.9v-4.38h-5.9v-3.77h-2.94l-5.25,5.02v3.13h2.75v7.36c0,5.28,2.58,7.51,7.98,7.51h3.37v-4.77h-3.37Z"/>
      </g>
      <g>
        <path class="cls-1" d="M156.36,23.74c0,3.08-1.74,4.5-4.33,4.5s-4.27-1.4-4.27-4.5V13.57h-5.59v10.36c0,6.75,5.65,9.4,9.89,9.4s9.9-2.65,9.9-9.4V13.57h-5.59l-.03,10.16Z"/>
        <path class="cls-1" d="M137.46,18.29v-4.72h-18.15v4.72h10.74l-11.18,9.96v4.72h19.26v-4.72h-11.83l11.16-9.96Z"/>
        <path class="cls-1" d="M189.93,13.2c-3.54,0-6.21,1.44-7.53,3.63-1.35-2.19-4.27-3.63-7.31-3.63-5.97,0-9.08,3.8-9.08,8.5v11.27h5.59v-10.47c0-2.25,1.18-4.22,3.89-4.22,.55-.03,1.11,.05,1.62,.25,.52,.2,.99,.5,1.38,.89,.39,.39,.69,.86,.89,1.38,.19,.52,.28,1.07,.24,1.62v10.56h5.59v-10.56c0-2.25,1.33-4.15,4.01-4.15s3.97,1.98,3.97,4.22v10.47h5.59v-11.25c0-4.7-2.88-8.5-8.89-8.5h.05Z"/>
        <path class="cls-1" d="M109.61,23.74c0,3.08-1.74,4.5-4.31,4.5s-4.29-1.4-4.29-4.5V13.57h-5.59v10.36c0,6.75,5.63,9.4,9.89,9.4s9.88-2.65,9.88-9.4V13.57h-5.59v10.16Z"/>
      </g>
    </g>
  </g>
</svg>